<svg xmlns="http://www.w3.org/2000/svg" width="273.71" height="35" viewBox="0 0 273.71 35"><rect class="svg__rect" x="0" y="0" width="151.63" height="35" fill="#000000"/><rect class="svg__rect" x="149.63" y="0" width="124.07999999999998" height="35" fill="#5AD72F"/><path class="svg__text" d="M13.97 18.13L13.97 18.13L13.97 17.46Q13.97 15.53 14.90 14.44Q15.82 13.35 17.48 13.35L17.48 13.35Q18.90 13.35 19.74 14.05Q20.58 14.76 20.75 16.08L20.75 16.08L19.30 16.08Q19.05 14.54 17.51 14.54L17.51 14.54Q16.51 14.54 16.00 15.26Q15.48 15.98 15.46 17.37L15.46 17.37L15.46 18.02Q15.46 19.40 16.04 20.17Q16.63 20.93 17.66 20.93L17.66 20.93Q18.80 20.93 19.28 20.42L19.28 20.42L19.28 18.75L17.52 18.75L17.52 17.62L20.76 17.62L20.76 20.89Q20.29 21.50 19.47 21.81Q18.65 22.12 17.61 22.12L17.61 22.12Q16.54 22.12 15.71 21.63Q14.89 21.14 14.44 20.24Q13.99 19.33 13.97 18.13ZM25.24 19.16L25.24 19.16L25.24 13.47L26.72 13.47L26.72 19.18Q26.72 20.03 27.15 20.48Q27.58 20.93 28.43 20.93L28.43 20.93Q30.14 20.93 30.14 19.13L30.14 19.13L30.14 13.47L31.61 13.47L31.61 19.17Q31.61 20.53 30.74 21.32Q29.87 22.12 28.43 22.12L28.43 22.12Q26.96 22.12 26.10 21.33Q25.24 20.55 25.24 19.16ZM37.75 22L36.27 22L36.27 13.47L37.75 13.47L37.75 22ZM45.01 22L42.56 22L42.56 13.47L45.08 13.47Q46.21 13.47 47.09 13.97Q47.96 14.48 48.44 15.40Q48.92 16.33 48.92 17.52L48.92 17.52L48.92 17.95Q48.92 19.16 48.44 20.08Q47.96 21.00 47.06 21.50Q46.17 22 45.01 22L45.01 22ZM44.04 14.66L44.04 20.82L45.01 20.82Q46.17 20.82 46.80 20.09Q47.42 19.36 47.43 17.99L47.43 17.99L47.43 17.52Q47.43 16.13 46.83 15.40Q46.23 14.66 45.08 14.66L45.08 14.66L44.04 14.66ZM58.97 22L53.39 22L53.39 13.47L58.92 13.47L58.92 14.66L54.87 14.66L54.87 17.02L58.37 17.02L58.37 18.19L54.87 18.19L54.87 20.82L58.97 20.82L58.97 22ZM70.62 22L69.14 22L69.14 13.47L72.40 13.47Q73.83 13.47 74.67 14.21Q75.51 14.96 75.51 16.18L75.51 16.18Q75.51 17.44 74.69 18.13Q73.87 18.83 72.38 18.83L72.38 18.83L70.62 18.83L70.62 22ZM70.62 14.66L70.62 17.64L72.40 17.64Q73.19 17.64 73.61 17.27Q74.02 16.90 74.02 16.19L74.02 16.19Q74.02 15.50 73.60 15.09Q73.18 14.68 72.44 14.66L72.44 14.66L70.62 14.66ZM81.28 22L79.80 22L79.80 13.47L82.80 13.47Q84.27 13.47 85.07 14.13Q85.88 14.79 85.88 16.05L85.88 16.05Q85.88 16.90 85.46 17.48Q85.05 18.06 84.31 18.37L84.31 18.37L86.23 21.92L86.23 22L84.64 22L82.93 18.71L81.28 18.71L81.28 22ZM81.28 14.66L81.28 17.52L82.80 17.52Q83.55 17.52 83.97 17.15Q84.39 16.77 84.39 16.11L84.39 16.11Q84.39 15.43 84.01 15.05Q83.62 14.68 82.84 14.66L82.84 14.66L81.28 14.66ZM90.00 18.00L90.00 18.00L90.00 17.52Q90.00 16.28 90.44 15.32Q90.89 14.37 91.69 13.86Q92.50 13.35 93.54 13.35Q94.58 13.35 95.39 13.85Q96.20 14.35 96.64 15.29Q97.07 16.23 97.08 17.48L97.08 17.48L97.08 17.96Q97.08 19.21 96.65 20.16Q96.21 21.10 95.41 21.61Q94.60 22.12 93.55 22.12L93.55 22.12Q92.52 22.12 91.70 21.61Q90.89 21.10 90.45 20.17Q90.01 19.23 90.00 18.00ZM91.48 17.46L91.48 17.96Q91.48 19.36 92.03 20.13Q92.58 20.90 93.55 20.90L93.55 20.90Q94.54 20.90 95.07 20.15Q95.60 19.40 95.60 17.96L95.60 17.96L95.60 17.51Q95.60 16.09 95.06 15.34Q94.53 14.58 93.54 14.58L93.54 14.58Q92.58 14.58 92.04 15.33Q91.50 16.09 91.48 17.46L91.48 17.46ZM100.94 19.57L100.94 19.57L102.42 19.57Q102.42 20.25 102.76 20.59Q103.09 20.93 103.73 20.93L103.73 20.93Q104.33 20.93 104.68 20.54Q105.04 20.14 105.04 19.45L105.04 19.45L105.04 13.47L106.51 13.47L106.51 19.45Q106.51 20.68 105.75 21.40Q104.98 22.12 103.73 22.12L103.73 22.12Q102.39 22.12 101.67 21.44Q100.94 20.77 100.94 19.57ZM116.77 22L111.20 22L111.20 13.47L116.73 13.47L116.73 14.66L112.68 14.66L112.68 17.02L116.18 17.02L116.18 18.19L112.68 18.19L112.68 20.82L116.77 20.82L116.77 22ZM120.70 18.19L120.70 18.19L120.70 17.39Q120.70 16.19 121.13 15.27Q121.56 14.35 122.35 13.85Q123.15 13.35 124.20 13.35L124.20 13.35Q125.62 13.35 126.48 14.12Q127.34 14.89 127.48 16.29L127.48 16.29L126.00 16.29Q125.90 15.37 125.47 14.96Q125.04 14.55 124.20 14.55L124.20 14.55Q123.24 14.55 122.72 15.26Q122.20 15.96 122.19 17.33L122.19 17.33L122.19 18.09Q122.19 19.47 122.68 20.20Q123.18 20.92 124.13 20.92L124.13 20.92Q125.01 20.92 125.45 20.53Q125.89 20.14 126.00 19.22L126.00 19.22L127.48 19.22Q127.35 20.59 126.47 21.35Q125.59 22.12 124.13 22.12L124.13 22.12Q123.11 22.12 122.34 21.63Q121.56 21.15 121.14 20.26Q120.72 19.37 120.70 18.19ZM133.47 14.66L130.84 14.66L130.84 13.47L137.60 13.47L137.60 14.66L134.94 14.66L134.94 22L133.47 22L133.47 14.66Z" fill="#FFFFFF"/><path class="svg__text" d="M167.79 22L163.82 22L163.82 13.60L167.79 13.60Q169.17 13.60 170.24 14.12Q171.31 14.63 171.90 15.58Q172.48 16.53 172.48 17.80L172.48 17.80Q172.48 19.07 171.90 20.02Q171.31 20.97 170.24 21.48Q169.17 22 167.79 22L167.79 22ZM166.20 15.50L166.20 20.10L167.70 20.10Q168.77 20.10 169.43 19.49Q170.08 18.88 170.08 17.80L170.08 17.80Q170.08 16.72 169.43 16.11Q168.77 15.50 167.70 15.50L167.70 15.50L166.20 15.50ZM178.63 22L176.20 22L179.91 13.60L182.26 13.60L185.97 22L183.51 22L182.84 20.37L179.29 20.37L178.63 22ZM181.07 15.93L179.98 18.61L182.15 18.61L181.07 15.93ZM191.92 15.48L189.34 15.48L189.34 13.60L196.86 13.60L196.86 15.48L194.29 15.48L194.29 22L191.92 22L191.92 15.48ZM202.65 22L200.22 22L203.93 13.60L206.27 13.60L209.99 22L207.52 22L206.86 20.37L203.31 20.37L202.65 22ZM205.09 15.93L204.00 18.61L206.16 18.61L205.09 15.93ZM213.72 17.80L213.72 17.80Q213.72 16.54 214.31 15.54Q214.91 14.55 215.96 13.99Q217.02 13.43 218.33 13.43L218.33 13.43Q219.49 13.43 220.41 13.84Q221.33 14.25 221.95 15.02L221.95 15.02L220.44 16.39Q219.62 15.40 218.46 15.40L218.46 15.40Q217.77 15.40 217.24 15.70Q216.70 16 216.41 16.54Q216.11 17.09 216.11 17.80L216.11 17.80Q216.11 18.51 216.41 19.05Q216.70 19.60 217.24 19.90Q217.77 20.20 218.46 20.20L218.46 20.20Q219.62 20.20 220.44 19.22L220.44 19.22L221.95 20.58Q221.34 21.35 220.41 21.76Q219.49 22.17 218.33 22.17L218.33 22.17Q217.02 22.17 215.96 21.61Q214.91 21.05 214.31 20.05Q213.72 19.06 213.72 17.80ZM227.90 22L225.48 22L229.19 13.60L231.53 13.60L235.24 22L232.78 22L232.11 20.37L228.56 20.37L227.90 22ZM230.34 15.93L229.26 18.61L231.42 18.61L230.34 15.93ZM241.60 22L239.40 22L239.40 13.60L241.35 13.60L244.31 18.45L247.19 13.60L249.14 13.60L249.17 22L246.99 22L246.96 17.55L244.80 21.17L243.75 21.17L241.60 17.67L241.60 22ZM256.71 22L254.33 22L254.33 13.60L258.17 13.60Q259.31 13.60 260.15 13.98Q260.99 14.35 261.45 15.06Q261.90 15.76 261.90 16.71L261.90 16.71Q261.90 17.66 261.45 18.35Q260.99 19.05 260.15 19.42Q259.31 19.80 258.17 19.80L258.17 19.80L256.71 19.80L256.71 22ZM256.71 15.47L256.71 17.93L258.02 17.93Q258.76 17.93 259.13 17.61Q259.50 17.29 259.50 16.71L259.50 16.71Q259.50 16.12 259.13 15.80Q258.76 15.47 258.02 15.47L258.02 15.47L256.71 15.47Z" fill="#FFFFFF" x="162.63"/></svg>