<svg xmlns="http://www.w3.org/2000/svg" width="284.54" height="35" viewBox="0 0 284.54 35"><rect class="svg__rect" x="0" y="0" width="162.46" height="35" fill="#000000"/><rect class="svg__rect" x="160.46" y="0" width="124.08000000000001" height="35" fill="#8FC965"/><path class="svg__text" d="M13.97 18.13L13.97 18.13L13.97 17.46Q13.97 15.53 14.90 14.44Q15.82 13.35 17.48 13.35L17.48 13.35Q18.90 13.35 19.74 14.05Q20.58 14.76 20.75 16.08L20.75 16.08L19.30 16.08Q19.05 14.54 17.51 14.54L17.51 14.54Q16.51 14.54 16.00 15.26Q15.48 15.98 15.46 17.37L15.46 17.37L15.46 18.02Q15.46 19.40 16.04 20.17Q16.63 20.93 17.66 20.93L17.66 20.93Q18.80 20.93 19.28 20.42L19.28 20.42L19.28 18.75L17.52 18.75L17.52 17.62L20.76 17.62L20.76 20.89Q20.29 21.50 19.47 21.81Q18.65 22.12 17.61 22.12L17.61 22.12Q16.54 22.12 15.71 21.63Q14.89 21.14 14.44 20.24Q13.99 19.33 13.97 18.13ZM25.24 19.16L25.24 19.16L25.24 13.47L26.72 13.47L26.72 19.18Q26.72 20.03 27.15 20.48Q27.58 20.93 28.43 20.93L28.43 20.93Q30.14 20.93 30.14 19.13L30.14 19.13L30.14 13.47L31.61 13.47L31.61 19.17Q31.61 20.53 30.74 21.32Q29.87 22.12 28.43 22.12L28.43 22.12Q26.96 22.12 26.10 21.33Q25.24 20.55 25.24 19.16ZM37.75 22L36.27 22L36.27 13.47L37.75 13.47L37.75 22ZM45.01 22L42.56 22L42.56 13.47L45.08 13.47Q46.21 13.47 47.09 13.97Q47.96 14.48 48.44 15.40Q48.92 16.33 48.92 17.52L48.92 17.52L48.92 17.95Q48.92 19.16 48.44 20.08Q47.96 21.00 47.06 21.50Q46.17 22 45.01 22L45.01 22ZM44.04 14.66L44.04 20.82L45.01 20.82Q46.17 20.82 46.80 20.09Q47.42 19.36 47.43 17.99L47.43 17.99L47.43 17.52Q47.43 16.13 46.83 15.40Q46.23 14.66 45.08 14.66L45.08 14.66L44.04 14.66ZM58.97 22L53.39 22L53.39 13.47L58.92 13.47L58.92 14.66L54.87 14.66L54.87 17.02L58.37 17.02L58.37 18.19L54.87 18.19L54.87 20.82L58.97 20.82L58.97 22ZM65.62 22L63.16 22L63.16 13.47L65.68 13.47Q66.81 13.47 67.69 13.97Q68.56 14.48 69.04 15.40Q69.52 16.33 69.52 17.52L69.52 17.52L69.52 17.95Q69.52 19.16 69.04 20.08Q68.56 21.00 67.66 21.50Q66.77 22 65.62 22L65.62 22ZM64.64 14.66L64.64 20.82L65.61 20.82Q66.78 20.82 67.40 20.09Q68.02 19.36 68.04 17.99L68.04 17.99L68.04 17.52Q68.04 16.13 67.43 15.40Q66.83 14.66 65.68 14.66L65.68 14.66L64.64 14.66ZM81.45 22L79.97 22L79.97 13.47L83.23 13.47Q84.66 13.47 85.50 14.21Q86.34 14.96 86.34 16.18L86.34 16.18Q86.34 17.44 85.52 18.13Q84.69 18.83 83.21 18.83L83.21 18.83L81.45 18.83L81.45 22ZM81.45 14.66L81.45 17.64L83.23 17.64Q84.02 17.64 84.44 17.27Q84.85 16.90 84.85 16.19L84.85 16.19Q84.85 15.50 84.43 15.09Q84.01 14.68 83.27 14.66L83.27 14.66L81.45 14.66ZM92.11 22L90.62 22L90.62 13.47L93.62 13.47Q95.10 13.47 95.90 14.13Q96.71 14.79 96.71 16.05L96.71 16.05Q96.71 16.90 96.29 17.48Q95.88 18.06 95.14 18.37L95.14 18.37L97.06 21.92L97.06 22L95.47 22L93.76 18.71L92.11 18.71L92.11 22ZM92.11 14.66L92.11 17.52L93.63 17.52Q94.38 17.52 94.80 17.15Q95.22 16.77 95.22 16.11L95.22 16.11Q95.22 15.43 94.83 15.05Q94.44 14.68 93.67 14.66L93.67 14.66L92.11 14.66ZM100.83 18.00L100.83 18.00L100.83 17.52Q100.83 16.28 101.27 15.32Q101.72 14.37 102.52 13.86Q103.33 13.35 104.37 13.35Q105.41 13.35 106.22 13.85Q107.02 14.35 107.46 15.29Q107.90 16.23 107.91 17.48L107.91 17.48L107.91 17.96Q107.91 19.21 107.47 20.16Q107.04 21.10 106.24 21.61Q105.43 22.12 104.38 22.12L104.38 22.12Q103.34 22.12 102.53 21.61Q101.72 21.10 101.28 20.17Q100.84 19.23 100.83 18.00ZM102.31 17.46L102.31 17.96Q102.31 19.36 102.86 20.13Q103.41 20.90 104.38 20.90L104.38 20.90Q105.37 20.90 105.90 20.15Q106.43 19.40 106.43 17.96L106.43 17.96L106.43 17.51Q106.43 16.09 105.89 15.34Q105.35 14.58 104.37 14.58L104.37 14.58Q103.41 14.58 102.87 15.33Q102.32 16.09 102.31 17.46L102.31 17.46ZM111.77 19.57L111.77 19.57L113.25 19.57Q113.25 20.25 113.58 20.59Q113.92 20.93 114.56 20.93L114.56 20.93Q115.16 20.93 115.51 20.54Q115.87 20.14 115.87 19.45L115.87 19.45L115.87 13.47L117.34 13.47L117.34 19.45Q117.34 20.68 116.58 21.40Q115.81 22.12 114.56 22.12L114.56 22.12Q113.22 22.12 112.50 21.44Q111.77 20.77 111.77 19.57ZM127.60 22L122.02 22L122.02 13.47L127.56 13.47L127.56 14.66L123.51 14.66L123.51 17.02L127.01 17.02L127.01 18.19L123.51 18.19L123.51 20.82L127.60 20.82L127.60 22ZM131.53 18.19L131.53 18.19L131.53 17.39Q131.53 16.19 131.96 15.27Q132.38 14.35 133.18 13.85Q133.98 13.35 135.03 13.35L135.03 13.35Q136.44 13.35 137.31 14.12Q138.17 14.89 138.31 16.29L138.31 16.29L136.83 16.29Q136.72 15.37 136.29 14.96Q135.86 14.55 135.03 14.55L135.03 14.55Q134.06 14.55 133.55 15.26Q133.03 15.96 133.02 17.33L133.02 17.33L133.02 18.09Q133.02 19.47 133.51 20.20Q134.01 20.92 134.96 20.92L134.96 20.92Q135.83 20.92 136.27 20.53Q136.71 20.14 136.83 19.22L136.83 19.22L138.31 19.22Q138.18 20.59 137.30 21.35Q136.42 22.12 134.96 22.12L134.96 22.12Q133.94 22.12 133.17 21.63Q132.39 21.15 131.97 20.26Q131.55 19.37 131.53 18.19ZM144.30 14.66L141.66 14.66L141.66 13.47L148.43 13.47L148.43 14.66L145.77 14.66L145.77 22L144.30 22L144.30 14.66Z" fill="#FFFFFF"/><path class="svg__text" d="M178.62 22L174.65 22L174.65 13.60L178.62 13.60Q180.00 13.60 181.07 14.12Q182.14 14.63 182.73 15.58Q183.31 16.53 183.31 17.80L183.31 17.80Q183.31 19.07 182.73 20.02Q182.14 20.97 181.07 21.48Q180.00 22 178.62 22L178.62 22ZM177.03 15.50L177.03 20.10L178.53 20.10Q179.60 20.10 180.26 19.49Q180.91 18.88 180.91 17.80L180.91 17.80Q180.91 16.72 180.26 16.11Q179.60 15.50 178.53 15.50L178.53 15.50L177.03 15.50ZM189.46 22L187.03 22L190.74 13.60L193.09 13.60L196.80 22L194.34 22L193.67 20.37L190.12 20.37L189.46 22ZM191.90 15.93L190.81 18.61L192.98 18.61L191.90 15.93ZM202.75 15.48L200.17 15.48L200.17 13.60L207.69 13.60L207.69 15.48L205.12 15.48L205.12 22L202.75 22L202.75 15.48ZM213.48 22L211.05 22L214.76 13.60L217.10 13.60L220.82 22L218.35 22L217.69 20.37L214.14 20.37L213.48 22ZM215.92 15.93L214.83 18.61L216.99 18.61L215.92 15.93ZM224.55 17.80L224.55 17.80Q224.55 16.54 225.14 15.54Q225.74 14.55 226.79 13.99Q227.85 13.43 229.16 13.43L229.16 13.43Q230.32 13.43 231.24 13.84Q232.16 14.25 232.78 15.02L232.78 15.02L231.27 16.39Q230.45 15.40 229.29 15.40L229.29 15.40Q228.60 15.40 228.07 15.70Q227.53 16 227.24 16.54Q226.94 17.09 226.94 17.80L226.94 17.80Q226.94 18.51 227.24 19.05Q227.53 19.60 228.07 19.90Q228.60 20.20 229.29 20.20L229.29 20.20Q230.45 20.20 231.27 19.22L231.27 19.22L232.78 20.58Q232.17 21.35 231.24 21.76Q230.32 22.17 229.16 22.17L229.16 22.17Q227.85 22.17 226.79 21.61Q225.74 21.05 225.14 20.05Q224.55 19.06 224.55 17.80ZM238.73 22L236.31 22L240.02 13.60L242.36 13.60L246.07 22L243.61 22L242.94 20.37L239.39 20.37L238.73 22ZM241.17 15.93L240.09 18.61L242.25 18.61L241.17 15.93ZM252.43 22L250.23 22L250.23 13.60L252.19 13.60L255.14 18.45L258.02 13.60L259.97 13.60L260.00 22L257.82 22L257.79 17.55L255.63 21.17L254.58 21.17L252.43 17.67L252.43 22ZM267.54 22L265.16 22L265.16 13.60L269.00 13.60Q270.14 13.60 270.98 13.98Q271.82 14.35 272.28 15.06Q272.73 15.76 272.73 16.71L272.73 16.71Q272.73 17.66 272.28 18.35Q271.82 19.05 270.98 19.42Q270.14 19.80 269.00 19.80L269.00 19.80L267.54 19.80L267.54 22ZM267.54 15.47L267.54 17.93L268.85 17.93Q269.59 17.93 269.96 17.61Q270.33 17.29 270.33 16.71L270.33 16.71Q270.33 16.12 269.96 15.80Q269.59 15.47 268.85 15.47L268.85 15.47L267.54 15.47Z" fill="#FFFFFF" x="173.46"/></svg>